<?xml version="1.0" encoding="UTF-8" standalone="no"?>
<svg width="456" height="456" viewBox="0 0 456 456" version="1.1" xmlns="http://www.w3.org/2000/svg">
    <!-- Background with rounded corners -->
    <rect x="0" y="0" width="456" height="456" fill="#198754" rx="60" ry="60"/>
    
    <!-- Main Medicine Bottle -->
    <rect x="108" y="120" width="240" height="280" fill="#FFFFFF" rx="25" ry="25"/>
    <rect x="128" y="140" width="200" height="240" fill="#F8F9FA" rx="20" ry="20"/>
    
    <!-- Bottle Neck -->
    <rect x="188" y="100" width="80" height="40" fill="#6C757D" rx="20" ry="20"/>
    <rect x="198" y="110" width="60" height="20" fill="#495057" rx="10" ry="10"/>
    
    <!-- Bottle Cap -->
    <rect x="208" y="80" width="40" height="30" fill="#6C757D" rx="20" ry="20"/>
    <rect x="213" y="85" width="30" height="20" fill="#495057" rx="15" ry="15"/>
    
    <!-- Medicine Dropper -->
    <rect x="228" y="50" width="20" height="40" fill="#6C757D" rx="10" ry="10"/>
    <circle cx="238" cy="40" r="12" fill="#6C757D"/>
    
    <!-- Cross Symbol (Medical) -->
    <rect x="218" y="200" width="20" height="60" fill="#198754" rx="10" ry="10"/>
    <rect x="198" y="220" width="60" height="20" fill="#198754" rx="10" ry="10"/>
    
    <!-- Medicine Pills -->
    <circle cx="168" cy="250" r="15" fill="#198754" opacity="0.8"/>
    <circle cx="288" cy="250" r="15" fill="#198754" opacity="0.8"/>
    <circle cx="228" cy="280" r="12" fill="#198754" opacity="0.6"/>
    
    <!-- Time/Clock Symbol -->
    <circle cx="228" cy="340" r="35" fill="#198754" stroke="#FFFFFF" stroke-width="3"/>
    <line x1="228" y1="340" x2="228" y2="320" stroke="#FFFFFF" stroke-width="3" stroke-linecap="round"/>
    <line x1="228" y1="340" x2="245" y2="340" stroke="#FFFFFF" stroke-width="3" stroke-linecap="round"/>
    
    <!-- Calendar Symbol -->
    <rect x="168" y="380" width="120" height="70" fill="#198754" rx="12" ry="12"/>
    <rect x="168" y="380" width="120" height="20" fill="#FFFFFF" rx="12" ry="12"/>
    
    <!-- Calendar Dots -->
    <circle cx="178" cy="390" r="3" fill="#198754"/>
    <circle cx="188" cy="390" r="3" fill="#198754"/>
    <circle cx="198" cy="390" r="3" fill="#198754"/>
    <circle cx="208" cy="390" r="3" fill="#198754"/>
    <circle cx="218" cy="390" r="3" fill="#198754"/>
    <circle cx="228" cy="390" r="3" fill="#198754"/>
    <circle cx="238" cy="390" r="3" fill="#198754"/>
    <circle cx="248" cy="390" r="3" fill="#198754"/>
    <circle cx="258" cy="390" r="3" fill="#198754"/>
    <circle cx="268" cy="390" r="3" fill="#198754"/>
    <circle cx="278" cy="390" r="3" fill="#198754"/>
    
    <!-- Calendar Numbers -->
    <text x="178" y="410" font-family="Arial, sans-serif" font-size="14" font-weight="bold" fill="#FFFFFF">15</text>
    <text x="208" y="410" font-family="Arial, sans-serif" font-size="14" font-weight="bold" fill="#FFFFFF">16</text>
    <text x="238" y="410" font-family="Arial, sans-serif" font-size="14" font-weight="bold" fill="#FFFFFF">17</text>
    <text x="268" y="410" font-family="Arial, sans-serif" font-size="14" font-weight="bold" fill="#FFFFFF">18</text>
    
    <!-- Plus Symbol for Medicine -->
    <rect x="198" y="180" width="20" height="60" fill="#198754" rx="10" ry="10"/>
    <rect x="178" y="200" width="60" height="20" fill="#198754" rx="10" ry="10"/>
    
    <!-- Drops -->
    <circle cx="268" cy="180" r="8" fill="#198754" opacity="0.8"/>
    <circle cx="278" cy="190" r="6" fill="#198754" opacity="0.6"/>
    <circle cx="288" cy="200" r="4" fill="#198754" opacity="0.4"/>
</svg>